<svg xmlns="http://www.w3.org/2000/svg" version="1.1" xmlns:xlink="http://www.w3.org/1999/xlink" xmlns:svgjs="http://svgjs.com/svgjs" width="1440" height="560" preserveAspectRatio="none" viewBox="0 0 1440 560"><g mask="url(&quot;#SvgjsMask1005&quot;)" fill="none"><rect width="1440" height="560" x="0" y="0" fill="#0e2a47"></rect><path d="M639.09 667.04C770.56 628.04 725.63 255.87 1001.37 255.18 1277.11 254.49 1536.36 476.64 1725.94 479.18" stroke="rgba(51,121,194,0.58)" stroke-width="2"></path><path d="M408.25 655.35C572.24 631.08 662.08 242.92 926.63 241.84 1191.17 240.76 1305.99 439.93 1445 443.44" stroke="rgba(51,121,194,0.58)" stroke-width="2"></path><path d="M642.04 620.77C750.05 619.19 830.14 496.43 1053.64 489.27 1277.15 482.11 1348.95 277.5 1465.25 270.87" stroke="rgba(51,121,194,0.58)" stroke-width="2"></path><path d="M673.1 660.21C794.92 656.32 877.15 478.11 1121.88 469.68 1366.6 461.25 1447.74 272.64 1570.65 268.08" stroke="rgba(51,121,194,0.58)" stroke-width="2"></path><path d="M457.52 625.09C604.55 612.91 682.37 326.49 959.56 314.87 1236.75 303.25 1329.7 154.47 1461.6 152.47" stroke="rgba(51,121,194,0.58)" stroke-width="2"></path></g><defs><mask id="SvgjsMask1005"><rect width="1440" height="560" fill="#ffffff"></rect></mask></defs></svg>