<svg xmlns="http://www.w3.org/2000/svg" version="1.1" xmlns:xlink="http://www.w3.org/1999/xlink" xmlns:svgjs="http://svgjs.com/svgjs" width="1440" height="560" preserveAspectRatio="none" viewBox="0 0 1440 560"><g mask="url(&quot;#SvgjsMask1004&quot;)" fill="none"><rect width="1440" height="560" x="0" y="0" fill="#0e2a47"></rect><path d="M-0.09 175.9C158.3 181.24 343.26 419.43 581.6 427.9 819.93 436.37 792.49 558.35 872.44 561.49" stroke="rgba(51,121,194,0.58)" stroke-width="2"></path><path d="M-114.6 346.43C23.75 337.04 176.34 68.59 367.47 72.03 558.59 75.47 494.97 506.45 608.5 594.95" stroke="rgba(51,121,194,0.58)" stroke-width="2"></path><path d="M-183.76 437.73C-30.32 436.68 109 291.12 412.52 292.13 716.03 293.14 833.57 650.37 1008.79 665.34" stroke="rgba(51,121,194,0.58)" stroke-width="2"></path><path d="M-221.68 132.58C-93.65 144.49-38.69 395.14 209.77 412.58 458.24 430.02 520.53 624.53 641.23 630.61" stroke="rgba(51,121,194,0.58)" stroke-width="2"></path><path d="M-270.86 143.44C-168.2 143.7-68.54 213.44 133.77 213.44 336.09 213.44 307.96 129.08 538.4 143.44 768.84 157.8 788.99 602.95 943.03 658.46" stroke="rgba(51,121,194,0.58)" stroke-width="2"></path></g><defs><mask id="SvgjsMask1004"><rect width="1440" height="560" fill="#ffffff"></rect></mask></defs></svg>