<svg xmlns="http://www.w3.org/2000/svg" version="1.1" xmlns:xlink="http://www.w3.org/1999/xlink" xmlns:svgjs="http://svgjs.com/svgjs" width="1440" height="560" preserveAspectRatio="none" viewBox="0 0 1440 560"><g mask="url(&quot;#SvgjsMask1000&quot;)" fill="none"><rect width="1440" height="560" x="0" y="0" fill="#0e2a47"></rect><path d="M -93.72929367071202,205 C 2.27,240 194.27,372 386.270706329288,380 C 578.27,388 674.27,227.6 866.270706329288,245 C 1058.27,262.4 1154.27,488.2 1346.270706329288,467 C 1538.27,445.8 1807.52,151.4 1826.270706329288,139 C 1845.02,126.6 1517.25,351.8 1440,405" stroke="rgba(51, 121, 194, 0.58)" stroke-width="2"></path><path d="M -553.4799578640449,352 C -457.48,296 -265.48,73.2 -73.47995786404485,72 C 118.52,70.8 214.52,307.2 406.5200421359551,346 C 598.52,384.8 694.52,241.2 886.5200421359551,266 C 1078.52,290.8 1255.82,510 1366.5200421359552,470 C 1477.22,430 1425.3,146.8 1440,66" stroke="rgba(51, 121, 194, 0.58)" stroke-width="2"></path><path d="M -729.3275124897493,380 C -633.33,323.6 -441.33,88 -249.32751248974932,98 C -57.33,108 38.67,425.4 230.67248751025068,430 C 422.67,434.6 518.67,120.4 710.6724875102507,121 C 902.67,121.6 1044.81,430.6 1190.6724875102507,433 C 1336.54,435.4 1390.13,193 1440,133" stroke="rgba(51, 121, 194, 0.58)" stroke-width="2"></path><path d="M -678.7958878246095,426 C -582.8,352.6 -390.8,81 -198.79588782460945,59 C -6.8,37 89.2,291.4 281.20411217539055,316 C 473.2,340.6 569.2,167 761.2041121753905,182 C 953.2,197 1105.44,413.4 1241.2041121753905,391 C 1376.96,368.6 1400.24,134.2 1440,70" stroke="rgba(51, 121, 194, 0.58)" stroke-width="2"></path></g><defs><mask id="SvgjsMask1000"><rect width="1440" height="560" fill="#ffffff"></rect></mask></defs></svg>